<?xml version="1.0" ?>
<!DOCTYPE svg  PUBLIC '-//W3C//DTD SVG 1.1//EN'  'http://www.w3.org/Graphics/SVG/1.1/DTD/svg11.dtd'>
<!-- Uploaded to: SVG Repo, www.svgrepo.com, Generator: SVG Repo Mixer Tools -->
<svg width="800px" height="800px" viewBox="-32.5 0 767 767" style="shape-rendering:geometricPrecision; text-rendering:geometricPrecision; image-rendering:optimizeQuality; fill-rule:evenodd; clip-rule:evenodd" version="1.1" xml:space="preserve" xmlns="http://www.w3.org/2000/svg" xmlns:xlink="http://www.w3.org/1999/xlink">
<defs>
<style type="text/css">
   <![CDATA[
    .fil0 {fill:#FEFEFE}
    .fil1 {fill:#1D1819}
   ]]>
  </style>
</defs>
<g id="Layer_x0020_1">
<g id="_792331472">
<polygon class="fil0" points="572,256 572,321 637,321 637,382 702,382 702,637 637,637 637,702 576,702 576,767 130,767 130,702 65,702 65,637 0,637 0,382 65,382 65,321 130,321 130,256 193,256 193,65 256,65 256,0 321,0 321,65 382,65 382,256 "/>
<path class="fil1" d="M256 65l-63 0 0 191 -63 0 0 65 -65 0 0 61 -65 0 0 255 65 0 65 0 0 65 446 0 61 0 0 -65 65 0 0 -65 0 -190 -65 0 0 -61 -65 0 0 -65 -190 0 0 -191 -61 0 -65 0 0 256 65 0 0 -256 0 -65 -65 0 0 65zm0 507l65 0 0 65 -65 0 0 -65zm130 -126l60 0 0 126 -60 0 0 -126zm-256 0l61 0 0 126 -61 0 0 -126 0 -64 63 0 0 64 63 0 0 65 65 0 0 -65 61 0 0 -64 129 0 0 64 65 0 0 126 61 0 0 65 -61 0 0 65 0 65 -446 0 0 -65 -65 0 0 -65 0 -191 65 0z"/>
</g>
</g>
</svg>